<mxfile host="app.diagrams.net" modified="2021-12-07T07:42:39.047Z" agent="5.0 (Windows NT 10.0; Win64; x64) AppleWebKit/537.36 (KHTML, like Gecko) Chrome/96.0.4664.45 Safari/537.36" etag="3lwRK_ht1EstBoD1fKy4" version="15.9.1" type="github">
  <diagram id="HPtm_faUkZdWP6oZtsW_" name="Page-1">
    <mxGraphModel dx="1422" dy="762" grid="1" gridSize="10" guides="1" tooltips="1" connect="1" arrows="1" fold="1" page="1" pageScale="1" pageWidth="1654" pageHeight="2336" math="0" shadow="0">
      <root>
        <mxCell id="0" />
        <mxCell id="1" parent="0" />
        <mxCell id="UrVvgXsBHesQFi_F_AIM-1" value="Пользователь" style="shape=umlActor;verticalLabelPosition=bottom;verticalAlign=top;html=1;outlineConnect=0;" vertex="1" parent="1">
          <mxGeometry x="210" y="310" width="30" height="60" as="geometry" />
        </mxCell>
        <mxCell id="UrVvgXsBHesQFi_F_AIM-2" value="Войти в систему" style="ellipse;whiteSpace=wrap;html=1;" vertex="1" parent="1">
          <mxGeometry x="400" y="150" width="120" height="80" as="geometry" />
        </mxCell>
        <mxCell id="UrVvgXsBHesQFi_F_AIM-3" value="Просмотр температуры" style="ellipse;whiteSpace=wrap;html=1;" vertex="1" parent="1">
          <mxGeometry x="400" y="290" width="120" height="80" as="geometry" />
        </mxCell>
        <mxCell id="UrVvgXsBHesQFi_F_AIM-4" value="Просмотр влажности" style="ellipse;whiteSpace=wrap;html=1;" vertex="1" parent="1">
          <mxGeometry x="400" y="410" width="120" height="80" as="geometry" />
        </mxCell>
        <mxCell id="UrVvgXsBHesQFi_F_AIM-5" value="Просмотр освещенности&amp;nbsp;" style="ellipse;whiteSpace=wrap;html=1;" vertex="1" parent="1">
          <mxGeometry x="400" y="530" width="120" height="80" as="geometry" />
        </mxCell>
      </root>
    </mxGraphModel>
  </diagram>
</mxfile>
